<?xml version="1.0" encoding="UTF-8" standalone="no"?>
<svg
   xmlns:dc="http://purl.org/dc/elements/1.1/"
   xmlns:cc="http://creativecommons.org/ns#"
   xmlns:rdf="http://www.w3.org/1999/02/22-rdf-syntax-ns#"
   xmlns:svg="http://www.w3.org/2000/svg"
   xmlns="http://www.w3.org/2000/svg"
   xmlns:sodipodi="http://sodipodi.sourceforge.net/DTD/sodipodi-0.dtd"
   xmlns:inkscape="http://www.inkscape.org/namespaces/inkscape"
   sodipodi:docname="magnifying-glass.svg"
   width="16.480995"
   height="16.480978"
   viewBox="0 0 16.480995 16.480978"
   version="1.1"
   id="svg8"
   inkscape:version="1.0 (4035a4f, 2020-05-01)">
  <defs
     id="defs2" />
  <sodipodi:namedview
     inkscape:window-maximized="1"
     inkscape:window-y="0"
     inkscape:window-x="0"
     inkscape:window-height="933"
     inkscape:window-width="1500"
     inkscape:pagecheckerboard="true"
     inkscape:document-rotation="0"
     id="base"
     pagecolor="#ffffff"
     bordercolor="#666666"
     borderopacity="1.0"
     inkscape:pageopacity="0.0"
     inkscape:pageshadow="2"
     inkscape:zoom="34.924197"
     inkscape:cx="8.2404976"
     inkscape:cy="8.240489"
     inkscape:document-units="px"
     inkscape:current-layer="layer1"
     showgrid="false"
     units="px"
     width="1100px"
     inkscape:showpageshadow="false" />
  <metadata
     id="metadata5">
    <rdf:RDF>
      <cc:Work
         rdf:about="">
        <dc:format>image/svg+xml</dc:format>
        <dc:type
           rdf:resource="http://purl.org/dc/dcmitype/StillImage" />
        <dc:title></dc:title>
      </cc:Work>
    </rdf:RDF>
  </metadata>
  <g
     transform="translate(-217.47379,-428.90237)"
     inkscape:label="Layer 1"
     inkscape:groupmode="layer"
     id="layer1">
    <path
       id="rect1114"
       d="m 230.22437,439.53162 a 7.5000005,7.5000005 0 0 1 -0.95294,1.16838 7.5000005,7.5000005 0 0 1 -1.16837,0.95295 l 3.2897,3.2897 c 0.58761,0.5876 1.53372,0.58759 2.12132,0 0.58761,-0.5876 0.58761,-1.53372 0,-2.12133 z m -10.85243,-8.7311 c -2.53086,2.53087 -2.53087,6.66151 1e-5,9.19238 2.53087,2.53087 6.66151,2.53087 9.19237,0 2.53086,-2.53086 2.53089,-6.66151 0,-9.19238 -2.53085,-2.53087 -6.66151,-2.53087 -9.19238,0 z m 1.27335,1.27335 c 1.843,-1.84301 4.8027,-1.84301 6.6457,0 1.84301,1.84299 1.843,4.80268 0,6.64568 -1.843,1.84301 -4.8027,1.84301 -6.64571,0 -1.843,-1.84299 -1.84299,-4.80269 10e-6,-6.64568 z" />
  </g>
</svg>
